<svg width="47" height="47" viewBox="0 0 47 47" fill="none" xmlns="http://www.w3.org/2000/svg">
<path d="M29.0442 42.5973V34.8524C29.3136 32.4268 28.6181 29.9927 27.108 28.0755C32.9167 28.0755 38.7254 24.2031 38.7254 17.4262C38.8803 15.0059 38.2026 12.6244 36.7892 10.6494C37.3313 8.42272 37.3313 6.09923 36.7892 3.87256C36.7892 3.87256 34.8529 3.87256 30.9805 6.77692C25.8688 5.8088 20.6022 5.8088 15.4906 6.77692C11.6181 3.87256 9.68183 3.87256 9.68183 3.87256C9.10096 6.09923 9.10096 8.42272 9.68183 10.6494C8.27201 12.6164 7.58774 15.0113 7.7456 17.4262C7.7456 24.2031 13.5543 28.0755 19.363 28.0755C18.6079 29.0243 18.0464 30.1086 17.7172 31.2703C17.3881 32.4321 17.2913 33.6519 17.4268 34.8524M17.4268 34.8524V42.5973M17.4268 34.8524C8.69435 38.7249 7.74552 30.9799 3.87305 30.9799" stroke="#F0F3F3" stroke-width="1.93624" stroke-linecap="round" stroke-linejoin="round"/>
</svg>
